<svg
    width="199"
    height="32"
    viewBox="0 0 199 32"
    fill="none"
    xmlns="http://www.w3.org/2000/svg"
  >
    <path
      d="M47.6872 6.592V25H41.9152V6.592H47.6872ZM58.9641 6.592C60.8881 6.592 62.5695 6.982 64.0081 7.762C65.4641 8.542 66.5821 9.62533 67.3621 11.012C68.1421 12.3987 68.5321 13.976 68.5321 15.744C68.5321 17.4947 68.1421 19.072 67.3621 20.476C66.5821 21.88 65.4641 22.9893 64.0081 23.804C62.5695 24.6013 60.8881 25 58.9641 25H51.2941V6.592H58.9641ZM58.4441 19.852C59.7441 19.852 60.7755 19.4967 61.5381 18.786C62.3008 18.0753 62.6821 17.0613 62.6821 15.744C62.6821 14.4267 62.3008 13.4127 61.5381 12.702C60.7755 11.9913 59.7441 11.636 58.4441 11.636H57.0661V19.852H58.4441ZM77.3884 11.194V13.456H83.1084V17.798H77.3884V20.398H83.8884V25H71.6164V6.592H83.8884V11.194H77.3884ZM104.718 25H98.9457L92.8357 15.744V25H87.0637V6.592H92.8357L98.9457 16.004V6.592H104.718V25ZM122.781 6.592V11.168H117.893V25H112.121V11.168H107.285V6.592H122.781ZM128.415 23.076H134.759V25H126.049V6.878H128.415V23.076ZM146.488 25.182C144.806 25.182 143.272 24.792 141.886 24.012C140.499 23.2147 139.398 22.114 138.584 20.71C137.786 19.2887 137.388 17.694 137.388 15.926C137.388 14.158 137.786 12.572 138.584 11.168C139.398 9.74667 140.499 8.646 141.886 7.866C143.272 7.06867 144.806 6.67 146.488 6.67C148.186 6.67 149.729 7.06867 151.116 7.866C152.502 8.646 153.594 9.738 154.392 11.142C155.189 12.546 155.588 14.1407 155.588 15.926C155.588 17.7113 155.189 19.306 154.392 20.71C153.594 22.114 152.502 23.2147 151.116 24.012C149.729 24.792 148.186 25.182 146.488 25.182ZM146.488 23.128C147.753 23.128 148.888 22.8333 149.894 22.244C150.916 21.6547 151.714 20.814 152.286 19.722C152.875 18.63 153.17 17.3647 153.17 15.926C153.17 14.47 152.875 13.2047 152.286 12.13C151.714 11.038 150.925 10.1973 149.92 9.608C148.914 9.01867 147.77 8.724 146.488 8.724C145.205 8.724 144.061 9.01867 143.056 9.608C142.05 10.1973 141.253 11.038 140.664 12.13C140.092 13.2047 139.806 14.47 139.806 15.926C139.806 17.3647 140.092 18.63 140.664 19.722C141.253 20.814 142.05 21.6547 143.056 22.244C144.078 22.8333 145.222 23.128 146.488 23.128ZM173.439 12.13C172.936 11.0727 172.208 10.258 171.255 9.686C170.302 9.09667 169.192 8.802 167.927 8.802C166.662 8.802 165.518 9.09667 164.495 9.686C163.49 10.258 162.692 11.09 162.103 12.182C161.531 13.2567 161.245 14.5047 161.245 15.926C161.245 17.3473 161.531 18.5953 162.103 19.67C162.692 20.7447 163.49 21.5767 164.495 22.166C165.518 22.738 166.662 23.024 167.927 23.024C169.695 23.024 171.151 22.4953 172.295 21.438C173.439 20.3807 174.106 18.9507 174.297 17.148H167.069V15.224H176.819V17.044C176.68 18.5347 176.212 19.904 175.415 21.152C174.618 22.3827 173.569 23.362 172.269 24.09C170.969 24.8007 169.522 25.156 167.927 25.156C166.246 25.156 164.712 24.766 163.325 23.986C161.938 23.1887 160.838 22.088 160.023 20.684C159.226 19.28 158.827 17.694 158.827 15.926C158.827 14.158 159.226 12.572 160.023 11.168C160.838 9.74667 161.938 8.646 163.325 7.866C164.712 7.06867 166.246 6.67 167.927 6.67C169.851 6.67 171.55 7.14667 173.023 8.1C174.514 9.05333 175.597 10.3967 176.273 12.13H173.439ZM189.163 25.182C187.482 25.182 185.948 24.792 184.561 24.012C183.175 23.2147 182.074 22.114 181.259 20.71C180.462 19.2887 180.063 17.694 180.063 15.926C180.063 14.158 180.462 12.572 181.259 11.168C182.074 9.74667 183.175 8.646 184.561 7.866C185.948 7.06867 187.482 6.67 189.163 6.67C190.862 6.67 192.405 7.06867 193.791 7.866C195.178 8.646 196.27 9.738 197.067 11.142C197.865 12.546 198.263 14.1407 198.263 15.926C198.263 17.7113 197.865 19.306 197.067 20.71C196.27 22.114 195.178 23.2147 193.791 24.012C192.405 24.792 190.862 25.182 189.163 25.182ZM189.163 23.128C190.429 23.128 191.564 22.8333 192.569 22.244C193.592 21.6547 194.389 20.814 194.961 19.722C195.551 18.63 195.845 17.3647 195.845 15.926C195.845 14.47 195.551 13.2047 194.961 12.13C194.389 11.038 193.601 10.1973 192.595 9.608C191.59 9.01867 190.446 8.724 189.163 8.724C187.881 8.724 186.737 9.01867 185.731 9.608C184.726 10.1973 183.929 11.038 183.339 12.13C182.767 13.2047 182.481 14.47 182.481 15.926C182.481 17.3647 182.767 18.63 183.339 19.722C183.929 20.814 184.726 21.6547 185.731 22.244C186.754 22.8333 187.898 23.128 189.163 23.128Z"
      fill="white"
    />
    <path
      d="M13.552 17.4761L15.9747 18.8747L18.468 17.4347V14.6801L15.9467 13.2267L13.552 14.7227V17.4761ZM10.8854 15.9361V6.63741C8.40844 7.9933 6.56837 10.2739 5.76669 12.9814L10.8867 15.9361H10.8854ZM5.33469 15.8107L5.33335 16.0001C5.32942 18.7283 6.37492 21.3535 8.25335 23.3321L13.3067 20.4134L5.33469 15.8107ZM13.552 11.5787L21.296 6.73875C19.684 5.81501 17.8579 5.33043 16 5.33341C15.1574 5.33341 14.3387 5.43075 13.552 5.61608V11.5787ZM23.556 8.47208L18.508 11.6254L26.6614 16.3334C26.7088 14.8802 26.4578 13.4326 25.9236 12.0802C25.3895 10.7278 24.5837 9.50071 23.556 8.47208ZM21.1347 16.2214V25.3521C23.5622 24.0164 25.3767 21.7909 26.196 19.1441L21.1347 16.2214ZM10.4774 25.1281C12.1423 26.1377 14.0529 26.67 16 26.6667C16.8494 26.6667 17.676 26.5681 18.4667 26.3801V20.5134L10.4774 25.1267V25.1281ZM16 29.3334C8.63602 29.3334 2.66669 23.3641 2.66669 16.0001C2.66669 8.63608 8.63602 2.66675 16 2.66675C23.364 2.66675 29.3334 8.63608 29.3334 16.0001C29.3334 23.3641 23.364 29.3334 16 29.3334Z"
      fill="white"
    />
  </svg>